<svg width="20" height="20" viewBox="0 0 20 20" fill="none" xmlns="http://www.w3.org/2000/svg">
<circle cx="10" cy="10" r="10" fill="#C2CBD9"/>
<path d="M10.4341 5.13818C11.4351 5.13818 12.2334 5.37988 12.8291 5.86328C13.4248 6.34668 13.7227 6.99121 13.7227 7.79688C13.7227 8.33887 13.6006 8.80273 13.3564 9.18848C13.1172 9.56934 12.6533 10.0088 11.9648 10.5068C11.4912 10.8535 11.1934 11.1172 11.0713 11.2979C10.9492 11.4785 10.8882 11.7153 10.8882 12.0083V12.4478H8.94727V11.9058C8.94727 11.437 9.04736 11.0293 9.24756 10.6826C9.44775 10.3311 9.80908 9.96729 10.3315 9.59131C10.8589 9.21045 11.2031 8.90771 11.3643 8.68311C11.5254 8.4585 11.606 8.19482 11.606 7.89209C11.606 7.58936 11.4888 7.35498 11.2544 7.18896C11.0249 7.02295 10.6978 6.93994 10.2729 6.93994C9.54541 6.93994 8.71045 7.1792 7.76807 7.65771L6.96973 6.05371C8.06348 5.44336 9.21826 5.13818 10.4341 5.13818ZM8.71289 14.9453C8.71289 14.54 8.82275 14.2324 9.04248 14.0225C9.26221 13.8125 9.57715 13.7075 9.9873 13.7075C10.4023 13.7075 10.7197 13.8149 10.9395 14.0298C11.1641 14.2446 11.2764 14.5498 11.2764 14.9453C11.2764 15.3359 11.1616 15.6436 10.9321 15.8682C10.7075 16.0879 10.3926 16.1978 9.9873 16.1978C9.58691 16.1978 9.27441 16.0903 9.0498 15.8755C8.8252 15.6558 8.71289 15.3457 8.71289 14.9453Z" fill="white"/>
</svg>
