<svg width="20" height="20" viewBox="0 0 20 20" fill="none" xmlns="http://www.w3.org/2000/svg">
<circle cx="10" cy="10" r="9.5" stroke="#F55D3E"/>
<path d="M11.0283 17H8.96289V7.2793H11.0283V17ZM8.83984 4.7041C8.83984 4.33496 8.93945 4.05078 9.13867 3.85156C9.34375 3.65234 9.63379 3.55273 10.0088 3.55273C10.3721 3.55273 10.6533 3.65234 10.8525 3.85156C11.0576 4.05078 11.1602 4.33496 11.1602 4.7041C11.1602 5.05566 11.0576 5.33398 10.8525 5.53906C10.6533 5.73828 10.3721 5.83789 10.0088 5.83789C9.63379 5.83789 9.34375 5.73828 9.13867 5.53906C8.93945 5.33398 8.83984 5.05566 8.83984 4.7041Z" fill="#F55D3E"/>
</svg>
